<mxfile host="Electron" modified="2024-07-03T07:58:59.120Z" agent="Mozilla/5.0 (Macintosh; Intel Mac OS X 10_15_7) AppleWebKit/537.36 (KHTML, like Gecko) draw.io/22.1.11 Chrome/114.0.5735.289 Electron/25.9.8 Safari/537.36" etag="Obmv7s2_1zOlpe_z-Rv4" version="22.1.11" type="device">
  <diagram name="第 1 页" id="LbLHYrfMs61iux43dW0h">
    <mxGraphModel dx="954" dy="589" grid="1" gridSize="10" guides="1" tooltips="1" connect="1" arrows="1" fold="1" page="1" pageScale="1" pageWidth="827" pageHeight="1169" math="0" shadow="0">
      <root>
        <mxCell id="0" />
        <mxCell id="1" parent="0" />
        <mxCell id="njytcRA9__mMUklmKUCp-19" value="" style="edgeStyle=orthogonalEdgeStyle;rounded=0;orthogonalLoop=1;jettySize=auto;html=1;entryX=0;entryY=0.5;entryDx=0;entryDy=0;" parent="1" source="njytcRA9__mMUklmKUCp-23" target="njytcRA9__mMUklmKUCp-24" edge="1">
          <mxGeometry relative="1" as="geometry" />
        </mxCell>
        <mxCell id="njytcRA9__mMUklmKUCp-21" style="edgeStyle=orthogonalEdgeStyle;rounded=0;orthogonalLoop=1;jettySize=auto;html=1;entryX=0;entryY=0.5;entryDx=0;entryDy=0;" parent="1" source="njytcRA9__mMUklmKUCp-23" target="njytcRA9__mMUklmKUCp-32" edge="1">
          <mxGeometry relative="1" as="geometry" />
        </mxCell>
        <mxCell id="njytcRA9__mMUklmKUCp-22" style="edgeStyle=orthogonalEdgeStyle;rounded=0;orthogonalLoop=1;jettySize=auto;html=1;entryX=0;entryY=0.5;entryDx=0;entryDy=0;" parent="1" source="njytcRA9__mMUklmKUCp-23" target="njytcRA9__mMUklmKUCp-29" edge="1">
          <mxGeometry relative="1" as="geometry" />
        </mxCell>
        <mxCell id="njytcRA9__mMUklmKUCp-50" style="edgeStyle=orthogonalEdgeStyle;rounded=0;orthogonalLoop=1;jettySize=auto;html=1;entryX=0;entryY=0.5;entryDx=0;entryDy=0;" parent="1" source="njytcRA9__mMUklmKUCp-23" target="njytcRA9__mMUklmKUCp-48" edge="1">
          <mxGeometry relative="1" as="geometry" />
        </mxCell>
        <mxCell id="njytcRA9__mMUklmKUCp-23" value="需求供给与市场均衡" style="rounded=1;whiteSpace=wrap;html=1;" parent="1" vertex="1">
          <mxGeometry x="40" y="330" width="120" height="60" as="geometry" />
        </mxCell>
        <mxCell id="njytcRA9__mMUklmKUCp-24" value="1.弹性理论概述" style="whiteSpace=wrap;html=1;rounded=1;" parent="1" vertex="1">
          <mxGeometry x="240" y="80" width="120" height="60" as="geometry" />
        </mxCell>
        <mxCell id="njytcRA9__mMUklmKUCp-25" value="" style="edgeStyle=orthogonalEdgeStyle;rounded=0;orthogonalLoop=1;jettySize=auto;html=1;entryX=0;entryY=0.5;entryDx=0;entryDy=0;" parent="1" source="njytcRA9__mMUklmKUCp-28" target="njytcRA9__mMUklmKUCp-35" edge="1">
          <mxGeometry relative="1" as="geometry" />
        </mxCell>
        <mxCell id="njytcRA9__mMUklmKUCp-26" style="edgeStyle=orthogonalEdgeStyle;rounded=0;orthogonalLoop=1;jettySize=auto;html=1;entryX=0;entryY=0.5;entryDx=0;entryDy=0;" parent="1" source="njytcRA9__mMUklmKUCp-28" target="njytcRA9__mMUklmKUCp-39" edge="1">
          <mxGeometry relative="1" as="geometry" />
        </mxCell>
        <mxCell id="njytcRA9__mMUklmKUCp-27" style="edgeStyle=orthogonalEdgeStyle;rounded=0;orthogonalLoop=1;jettySize=auto;html=1;entryX=0;entryY=0.5;entryDx=0;entryDy=0;" parent="1" source="njytcRA9__mMUklmKUCp-28" target="njytcRA9__mMUklmKUCp-37" edge="1">
          <mxGeometry relative="1" as="geometry" />
        </mxCell>
        <mxCell id="njytcRA9__mMUklmKUCp-28" value="2.需求弹性" style="whiteSpace=wrap;html=1;rounded=1;" parent="1" vertex="1">
          <mxGeometry x="440" y="319" width="120" height="60" as="geometry" />
        </mxCell>
        <mxCell id="njytcRA9__mMUklmKUCp-29" value="4.供求曲线的共同作用：市场均衡" style="whiteSpace=wrap;html=1;rounded=1;" parent="1" vertex="1">
          <mxGeometry x="240" y="640" width="120" height="60" as="geometry" />
        </mxCell>
        <mxCell id="njytcRA9__mMUklmKUCp-30" value="" style="edgeStyle=orthogonalEdgeStyle;rounded=0;orthogonalLoop=1;jettySize=auto;html=1;" parent="1" source="njytcRA9__mMUklmKUCp-32" target="njytcRA9__mMUklmKUCp-44" edge="1">
          <mxGeometry relative="1" as="geometry" />
        </mxCell>
        <mxCell id="njytcRA9__mMUklmKUCp-31" style="edgeStyle=orthogonalEdgeStyle;rounded=0;orthogonalLoop=1;jettySize=auto;html=1;entryX=0;entryY=0.5;entryDx=0;entryDy=0;" parent="1" source="njytcRA9__mMUklmKUCp-32" target="njytcRA9__mMUklmKUCp-46" edge="1">
          <mxGeometry relative="1" as="geometry" />
        </mxCell>
        <mxCell id="njytcRA9__mMUklmKUCp-32" value="3.供给与供给弹性" style="whiteSpace=wrap;html=1;rounded=1;" parent="1" vertex="1">
          <mxGeometry x="240" y="520" width="120" height="60" as="geometry" />
        </mxCell>
        <mxCell id="njytcRA9__mMUklmKUCp-33" value="" style="edgeStyle=orthogonalEdgeStyle;rounded=0;orthogonalLoop=1;jettySize=auto;html=1;" parent="1" source="njytcRA9__mMUklmKUCp-35" target="njytcRA9__mMUklmKUCp-40" edge="1">
          <mxGeometry relative="1" as="geometry" />
        </mxCell>
        <mxCell id="njytcRA9__mMUklmKUCp-35" value="1.需求价格弹性" style="whiteSpace=wrap;html=1;rounded=1;" parent="1" vertex="1">
          <mxGeometry x="640" y="240" width="120" height="60" as="geometry" />
        </mxCell>
        <mxCell id="njytcRA9__mMUklmKUCp-36" value="" style="edgeStyle=orthogonalEdgeStyle;rounded=0;orthogonalLoop=1;jettySize=auto;html=1;exitX=1;exitY=0.5;exitDx=0;exitDy=0;entryX=0;entryY=0.5;entryDx=0;entryDy=0;" parent="1" source="njytcRA9__mMUklmKUCp-37" target="njytcRA9__mMUklmKUCp-43" edge="1">
          <mxGeometry relative="1" as="geometry">
            <mxPoint x="750" y="429" as="sourcePoint" />
            <mxPoint x="830" y="429" as="targetPoint" />
          </mxGeometry>
        </mxCell>
        <mxCell id="njytcRA9__mMUklmKUCp-37" value="3.需求交叉弹性" style="whiteSpace=wrap;html=1;rounded=1;" parent="1" vertex="1">
          <mxGeometry x="640" y="400" width="120" height="60" as="geometry" />
        </mxCell>
        <mxCell id="njytcRA9__mMUklmKUCp-38" value="" style="edgeStyle=orthogonalEdgeStyle;rounded=0;orthogonalLoop=1;jettySize=auto;html=1;" parent="1" source="njytcRA9__mMUklmKUCp-39" target="njytcRA9__mMUklmKUCp-42" edge="1">
          <mxGeometry relative="1" as="geometry" />
        </mxCell>
        <mxCell id="njytcRA9__mMUklmKUCp-39" value="2.需求收入弹性" style="whiteSpace=wrap;html=1;rounded=1;" parent="1" vertex="1">
          <mxGeometry x="640" y="319" width="120" height="60" as="geometry" />
        </mxCell>
        <mxCell id="njytcRA9__mMUklmKUCp-40" value="&lt;div&gt;1.定义&lt;/div&gt;&lt;div&gt;2.计算：点弹性和弧弹性&amp;nbsp;&lt;br&gt;&lt;div style=&quot;border-color: var(--border-color);&quot;&gt;3.不同弹性的需求&lt;/div&gt;&lt;div style=&quot;border-color: var(--border-color);&quot;&gt;4.边际收益与价格弹性之间的关系&lt;/div&gt;&lt;div style=&quot;border-color: var(--border-color);&quot;&gt;5.需求价格弹性的主要影响因素&lt;/div&gt;&lt;/div&gt;" style="whiteSpace=wrap;html=1;rounded=1;" parent="1" vertex="1">
          <mxGeometry x="840" y="240" width="180" height="60" as="geometry" />
        </mxCell>
        <mxCell id="njytcRA9__mMUklmKUCp-42" value="&lt;div&gt;1.定义和计算&amp;nbsp;&amp;nbsp;&lt;/div&gt;&lt;div&gt;2.不同产品的收入弹性：奢侈品、必需品、劣等品。&amp;nbsp;&amp;nbsp;&lt;/div&gt;&lt;div&gt;3.需求收入弹性可以测算收入变化导致需求曲线水平移动的距离。&lt;/div&gt;" style="whiteSpace=wrap;html=1;rounded=1;" parent="1" vertex="1">
          <mxGeometry x="840" y="319" width="180" height="60" as="geometry" />
        </mxCell>
        <mxCell id="njytcRA9__mMUklmKUCp-43" value="&lt;div&gt;1.定义和计算&amp;nbsp;&lt;/div&gt;&lt;div&gt;2.与商品相关性的关系&lt;/div&gt;" style="whiteSpace=wrap;html=1;rounded=1;" parent="1" vertex="1">
          <mxGeometry x="840" y="400" width="120" height="60" as="geometry" />
        </mxCell>
        <mxCell id="2VseUJY4J9TK43GvPRYf-4" value="" style="edgeStyle=orthogonalEdgeStyle;rounded=0;orthogonalLoop=1;jettySize=auto;html=1;" parent="1" source="njytcRA9__mMUklmKUCp-44" target="2VseUJY4J9TK43GvPRYf-3" edge="1">
          <mxGeometry relative="1" as="geometry" />
        </mxCell>
        <mxCell id="njytcRA9__mMUklmKUCp-44" value="1.供给&amp;nbsp;" style="whiteSpace=wrap;html=1;rounded=1;" parent="1" vertex="1">
          <mxGeometry x="440" y="480" width="120" height="60" as="geometry" />
        </mxCell>
        <mxCell id="njytcRA9__mMUklmKUCp-45" value="" style="edgeStyle=orthogonalEdgeStyle;rounded=0;orthogonalLoop=1;jettySize=auto;html=1;" parent="1" source="njytcRA9__mMUklmKUCp-46" target="njytcRA9__mMUklmKUCp-47" edge="1">
          <mxGeometry relative="1" as="geometry" />
        </mxCell>
        <mxCell id="njytcRA9__mMUklmKUCp-46" value="2.供给价格弹性" style="whiteSpace=wrap;html=1;rounded=1;" parent="1" vertex="1">
          <mxGeometry x="440" y="560" width="120" height="60" as="geometry" />
        </mxCell>
        <mxCell id="njytcRA9__mMUklmKUCp-47" value="&lt;div&gt;1.定义、计算、类型。&amp;nbsp;&amp;nbsp;&lt;/div&gt;&lt;div&gt;2.两种计算方法：点弹性和弧弹性。&amp;nbsp;&amp;nbsp;&lt;/div&gt;&lt;div&gt;3.影响供给的价格弹性的主要因素。&amp;nbsp;&amp;nbsp;&lt;/div&gt;" style="whiteSpace=wrap;html=1;rounded=1;" parent="1" vertex="1">
          <mxGeometry x="640" y="560" width="200" height="60" as="geometry" />
        </mxCell>
        <mxCell id="njytcRA9__mMUklmKUCp-49" style="edgeStyle=orthogonalEdgeStyle;rounded=0;orthogonalLoop=1;jettySize=auto;html=1;entryX=0;entryY=0.5;entryDx=0;entryDy=0;" parent="1" source="njytcRA9__mMUklmKUCp-48" target="njytcRA9__mMUklmKUCp-28" edge="1">
          <mxGeometry relative="1" as="geometry" />
        </mxCell>
        <mxCell id="njytcRA9__mMUklmKUCp-52" style="edgeStyle=orthogonalEdgeStyle;rounded=0;orthogonalLoop=1;jettySize=auto;html=1;entryX=0;entryY=0.5;entryDx=0;entryDy=0;" parent="1" source="njytcRA9__mMUklmKUCp-48" target="njytcRA9__mMUklmKUCp-51" edge="1">
          <mxGeometry relative="1" as="geometry" />
        </mxCell>
        <mxCell id="njytcRA9__mMUklmKUCp-48" value="2.需求与需求弹性" style="whiteSpace=wrap;html=1;rounded=1;" parent="1" vertex="1">
          <mxGeometry x="240" y="240" width="120" height="60" as="geometry" />
        </mxCell>
        <mxCell id="2VseUJY4J9TK43GvPRYf-2" value="" style="edgeStyle=orthogonalEdgeStyle;rounded=0;orthogonalLoop=1;jettySize=auto;html=1;" parent="1" source="njytcRA9__mMUklmKUCp-51" target="2VseUJY4J9TK43GvPRYf-1" edge="1">
          <mxGeometry relative="1" as="geometry" />
        </mxCell>
        <mxCell id="njytcRA9__mMUklmKUCp-51" value="1.需求表、需求函数与需求曲线" style="whiteSpace=wrap;html=1;rounded=1;" parent="1" vertex="1">
          <mxGeometry x="440" y="160" width="120" height="60" as="geometry" />
        </mxCell>
        <mxCell id="2VseUJY4J9TK43GvPRYf-1" value="" style="whiteSpace=wrap;html=1;rounded=1;" parent="1" vertex="1">
          <mxGeometry x="640" y="160" width="120" height="60" as="geometry" />
        </mxCell>
        <mxCell id="2VseUJY4J9TK43GvPRYf-3" value="1.供给及其影响因素&lt;br&gt;2.供给函数&amp;nbsp;" style="whiteSpace=wrap;html=1;rounded=1;" parent="1" vertex="1">
          <mxGeometry x="640" y="480" width="120" height="60" as="geometry" />
        </mxCell>
      </root>
    </mxGraphModel>
  </diagram>
</mxfile>
